<?xml version="1.0" encoding="ISO-8859-1" standalone="no"?>
<!DOCTYPE svg PUBLIC "-//W3C//DTD SVG 20010904//EN"
"http://www.w3.org/TR/2001/REC-SVG-20010904/DTD/svg10.dtd">
<svg xmlns="http://www.w3.org/2000/svg"
 xmlns:xlink="http://www.w3.org/1999/xlink" xml:space="preserve"
 width="1000px" height="1000px"
 viewBox="0 0 1000 1000" >
 <line style="stroke:blue;stroke-width:2;stroke-opacity:1" x1="823.223304703363" y1="926.7766952966371" x2="823.2233047033644" y2="823.2233047033642" />
 <line style="stroke:blue;stroke-width:2;stroke-opacity:1" x1="780.3300858899072" y1="1000.0" x2="780.3300858899072" y2="987.4368670764596" />
 <line style="stroke:black;stroke-width:4;" x1="0.0" y1="646.4466094067245" x2="0.0" y2="603.5533905933244" />
 <line style="stroke:red;stroke-width:2;" x1="250.0000000000008" y1="603.5533905932717" x2="280.33008588991186" y2="530.3300858899077" />
 <line style="stroke:blue;stroke-width:2;stroke-opacity:1" x1="823.2233047033644" y1="823.2233047033642" x2="749.9999999999999" y2="749.9999999999998" />
 <line style="stroke:red;stroke-width:2;" x1="625.0" y1="301.77669529663694" x2="749.9999999999999" y2="250.00000000000003" />
 <line style="stroke:red;stroke-width:2;" x1="469.6699141100924" y1="823.223304703363" x2="366.11652351681727" y2="823.2233047033633" />
 <line style="stroke:blue;stroke-width:2;stroke-opacity:1" x1="73.22330470335947" y1="280.33008588991197" x2="73.22330470336124" y2="426.7766952966315" />
 <line style="stroke:blue;stroke-width:2;stroke-opacity:1" x1="73.2233047033705" y1="780.3300858899099" x2="219.66991411009008" y2="780.3300858899099" />
 <line style="stroke:red;stroke-width:2;" x1="359.8349570550462" y1="838.388347648319" x2="308.05826175840195" y2="816.9417382415895" />
 <line style="stroke:blue;stroke-width:2;stroke-opacity:1" x1="133.88347648318353" y1="573.223304703361" x2="161.61165235168096" y2="640.1650429449539" />
 <line style="stroke:blue;stroke-width:2;stroke-opacity:1" x1="500.0000000000019" y1="603.553390593273" x2="573.2233047033651" y2="676.776695296636" />
 <line style="stroke:red;stroke-width:2;" x1="698.2233047033632" y1="625.0" x2="750.0" y2="500.0" />
 <line style="stroke:black;stroke-width:4;" x1="500.0000000000899" y1="1000.0" x2="457.1067811865891" y2="1000.0" />
 <line style="stroke:red;stroke-width:2;" x1="286.611652351683" y1="515.1650429449518" x2="323.2233047033658" y2="530.3300858899077" />
 <line style="stroke:blue;stroke-width:2;stroke-opacity:1" x1="698.223304703363" y1="375.0" x2="625.0" y2="301.77669529663694" />
 <line style="stroke:red;stroke-width:2;" x1="286.611652351683" y1="515.1650429449518" x2="280.33008588991186" y2="530.3300858899077" />
 <line style="stroke:blue;stroke-width:2;stroke-opacity:1" x1="271.4466094067286" y1="624.9999999999995" x2="219.66991411008576" y2="676.7766952966454" />
 <line style="stroke:red;stroke-width:2;" x1="448.2233047033629" y1="375.0000000000007" x2="499.9999999999982" y2="499.9999999999982" />
 <line style="stroke:black;stroke-width:4;" x1="128.67965644033848" y1="1000.0" x2="125.00000000003581" y2="1000.0" />
 <line style="stroke:blue;stroke-width:2;stroke-opacity:1" x1="426.7766952966391" y1="926.7766952966385" x2="426.7766952966391" y2="866.1165235168164" />
 <line style="stroke:blue;stroke-width:2;stroke-opacity:1" x1="396.446609406727" y1="499.9999999999982" x2="323.22330470336397" y2="426.7766952966349" />
 <line style="stroke:blue;stroke-width:2;stroke-opacity:1" x1="0.0" y1="874.9999999999642" x2="64.33982822024473" y2="874.9999999999642" />
 <line style="stroke:red;stroke-width:2;" x1="875.0" y1="125.0" x2="875.0" y2="198.2233047033631" />
 <line style="stroke:black;stroke-width:4;" x1="94.66991411014021" y1="1000.0" x2="125.00000000003581" y2="1000.0" />
 <line style="stroke:red;stroke-width:2;" x1="396.446609406727" y1="499.9999999999982" x2="499.9999999999981" y2="499.9999999999982" />
 <line style="stroke:red;stroke-width:2;" x1="633.8834764831884" y1="780.3300858899098" x2="573.223304703368" y2="926.7766952966385" />
 <line style="stroke:blue;stroke-width:2;stroke-opacity:1" x1="176.77669529663575" y1="176.77669529663575" x2="250.00000000000026" y2="250.00000000000026" />
 <line style="stroke:black;stroke-width:4;" x1="0.0" y1="1000.0" x2="0.0" y2="905.3300858898598" />
 <line style="stroke:blue;stroke-width:2;stroke-opacity:1" x1="676.7766952966385" y1="676.7766952966388" x2="633.8834764831884" y2="780.3300858899098" />
 <line style="stroke:black;stroke-width:4;" x1="1000.0" y1="750.0" x2="999.9999999999998" y2="999.9999999999998" />
 <line style="stroke:blue;stroke-width:2;stroke-opacity:1" x1="219.66991411009013" y1="426.77669529663495" x2="219.66991411009013" y2="366.11652351681175" />
 <line style="stroke:blue;stroke-width:2;stroke-opacity:1" x1="125.0" y1="51.77669529663689" x2="73.22330470336311" y2="73.22330470336304" />
 <line style="stroke:red;stroke-width:2;" x1="58.05826175840821" y1="743.7184335382261" x2="51.77669529663518" y2="728.5533905932715" />
 <line style="stroke:blue;stroke-width:2;stroke-opacity:1" x1="396.4466094067393" y1="1000.0000000000138" x2="426.77669529663916" y2="969.6699141100692" />
 <line style="stroke:red;stroke-width:2;" x1="262.56313292354207" y1="926.776695296639" x2="256.28156646177393" y2="941.9417382415918" />
 <line style="stroke:red;stroke-width:2;" x1="536.6116523516835" y1="588.3883476483176" x2="573.2233047033645" y2="676.7766952966355" />
 <line style="stroke:blue;stroke-width:2;stroke-opacity:1" x1="469.6699141100924" y1="823.223304703363" x2="396.4466094067283" y2="749.9999999999991" />
 <line style="stroke:blue;stroke-width:2;stroke-opacity:1" x1="30.33008588990606" y1="780.3300858899155" x2="0.0" y2="810.6601717798217" />
 <line style="stroke:black;stroke-width:4;" x1="500.0000000000899" y1="1000.0" x2="573.2233047033678" y2="1000.0" />
 <line style="stroke:blue;stroke-width:2;stroke-opacity:1" x1="146.44660940672537" y1="707.1067811865549" x2="60.660171779819905" y2="707.1067811865444" />
 <line style="stroke:red;stroke-width:2;" x1="219.66991411008985" y1="926.7766952966293" x2="250.00000000000387" y2="957.1067811865485" />
 <line style="stroke:red;stroke-width:2;" x1="323.22330470336556" y1="926.7766952966384" x2="353.5533905932755" y2="1000.0" />
 <line style="stroke:red;stroke-width:2;" x1="0.0" y1="250.0" x2="12.563132923540365" y2="219.6699141100929" />
 <line style="stroke:blue;stroke-width:2;stroke-opacity:1" x1="573.2233047033678" y1="926.7766952966385" x2="426.7766952966391" y2="926.7766952966385" />
 <line style="stroke:red;stroke-width:2;" x1="73.2233047033614" y1="573.223304703361" x2="146.44660940672532" y2="646.446609406725" />
 <line style="stroke:blue;stroke-width:2;stroke-opacity:1" x1="771.4466094067238" y1="978.5533905932762" x2="823.2233047033584" y2="926.7766952966417" />
 <line style="stroke:red;stroke-width:2;" x1="241.11652351681926" y1="960.786437626906" x2="250.0000000000041" y2="957.1067811865485" />
 <line style="stroke:blue;stroke-width:2;stroke-opacity:1" x1="219.66991411010343" y1="676.7766952966381" x2="183.05826175841042" y2="691.941738241598" />
 <line style="stroke:red;stroke-width:2;" x1="396.44660940671827" y1="603.5533905932817" x2="426.77669529663683" y2="676.7766952966381" />
 <line style="stroke:black;stroke-width:4;" x1="853.5533905932739" y1="1000.0" x2="926.7766952966372" y2="1000.0" />
 <line style="stroke:blue;stroke-width:2;stroke-opacity:1" x1="719.6699141100958" y1="866.1165235168154" x2="823.2233047033644" y2="823.2233047033642" />
 <line style="stroke:blue;stroke-width:2;stroke-opacity:1" x1="500.0000000000019" y1="707.1067811865466" x2="500.0000000000019" y2="676.7766952966381" />
 <line style="stroke:black;stroke-width:4;" x1="353.55339059327434" y1="0.0" x2="249.99999999999994" y2="0.0" />
 <line style="stroke:blue;stroke-width:2;stroke-opacity:1" x1="116.11652351683472" y1="823.2233047033744" x2="116.11652351685223" y2="883.8834764831478" />
 <line style="stroke:red;stroke-width:2;" x1="42.8932188134616" y1="603.5533905932608" x2="30.33008588990606" y2="573.223304703301" />
 <line style="stroke:red;stroke-width:2;" x1="625.0" y1="301.77669529663694" x2="625.0" y2="375.0" />
 <line style="stroke:blue;stroke-width:2;stroke-opacity:1" x1="750.0" y1="500.0" x2="625.0" y2="375.0" />
 <line style="stroke:red;stroke-width:2;" x1="366.11652351681727" y1="823.2233047033633" x2="359.8349570550462" y2="838.388347648319" />
 <line style="stroke:red;stroke-width:2;" x1="94.66991411012782" y1="874.9999999999642" x2="94.66991411014027" y2="905.3300858898598" />
 <line style="stroke:red;stroke-width:2;" x1="426.7766952966368" y1="676.7766952966381" x2="353.5533905932716" y2="707.1067811865462" />
 <line style="stroke:red;stroke-width:2;" x1="0.0" y1="426.77669529663234" x2="73.22330470336163" y2="426.77669529663234" />
 <line style="stroke:blue;stroke-width:2;stroke-opacity:1" x1="183.05826175841042" y1="691.941738241598" x2="219.66991411009008" y2="780.3300858899099" />
 <line style="stroke:blue;stroke-width:2;stroke-opacity:1" x1="323.22330470336556" y1="926.7766952966384" x2="426.7766952966391" y2="926.7766952966385" />
 <line style="stroke:red;stroke-width:2;" x1="698.223304703363" y1="375.0" x2="750.0000000000001" y2="500.0000000000001" />
 <line style="stroke:red;stroke-width:2;" x1="875.0000000000002" y1="801.7766952966379" x2="1000.0000000000001" y2="750.0" />
 <line style="stroke:blue;stroke-width:2;stroke-opacity:1" x1="64.33982822024473" y1="874.9999999999642" x2="94.66991411014055" y2="905.3300858898601" />
 <line style="stroke:red;stroke-width:2;" x1="0.0" y1="646.4466094067245" x2="30.330085889911174" y2="719.6699141100887" />
 <line style="stroke:black;stroke-width:4;" x1="396.4466094067256" y1="1000.0" x2="353.5533905932755" y2="1000.0" />
 <line style="stroke:blue;stroke-width:2;stroke-opacity:1" x1="426.7766952966369" y1="426.7766952966369" x2="448.2233047033628" y2="375.0000000000007" />
 <line style="stroke:red;stroke-width:2;" x1="698.223304703363" y1="375.0" x2="625.0" y2="375.0" />
 <line style="stroke:red;stroke-width:2;" x1="-9.15179043659009E-12" y1="853.5533905932894" x2="30.33008588990606" y2="780.3300858899155" />
 <line style="stroke:black;stroke-width:4;" x1="0.0" y1="871.3203435596618" x2="0.0" y2="874.9999999999642" />
 <line style="stroke:red;stroke-width:2;" x1="536.6116523516835" y1="588.3883476483176" x2="500.00000000000443" y2="500.00000000000443" />
 <line style="stroke:red;stroke-width:2;" x1="250.0000000000042" y1="957.1067811865485" x2="256.28156646177393" y2="941.9417382415918" />
 <line style="stroke:blue;stroke-width:2;stroke-opacity:1" x1="512.5631329235457" y1="780.3300858899098" x2="573.2233047033659" y2="780.3300858899098" />
 <line style="stroke:blue;stroke-width:2;stroke-opacity:1" x1="292.8932188134555" y1="939.3398282201802" x2="292.8932188134451" y2="853.5533905932746" />
 <line style="stroke:blue;stroke-width:2;stroke-opacity:1" x1="323.22330470336203" y1="676.7766952966329" x2="323.22330470336203" y2="780.3300858899069" />
 <line style="stroke:red;stroke-width:2;" x1="426.77669529663916" y1="969.6699141100692" x2="426.7766952966391" y2="926.7766952966385" />
 <line style="stroke:blue;stroke-width:2;stroke-opacity:1" x1="219.66991411009008" y1="926.7766952966297" x2="292.8932188134452" y2="853.5533905932746" />
 <line style="stroke:red;stroke-width:2;" x1="292.8932188134538" y1="646.4466094067284" x2="323.22330470336715" y2="676.7766952966381" />
 <line style="stroke:red;stroke-width:2;" x1="176.77669529664166" y1="323.2233047033616" x2="323.2233047033677" y2="323.2233047033616" />
 <line style="stroke:red;stroke-width:2;" x1="21.44660940673674" y1="551.7766952965998" x2="30.330085889905945" y2="573.223304703301" />
 <line style="stroke:red;stroke-width:2;" x1="353.5533905932716" y1="707.1067811865462" x2="323.223304703362" y2="676.7766952966329" />
 <line style="stroke:blue;stroke-width:2;stroke-opacity:1" x1="426.77669529663683" y1="676.7766952966381" x2="323.22330470336715" y2="676.7766952966381" />
 <line style="stroke:blue;stroke-width:2;stroke-opacity:1" x1="94.66991411012782" y1="874.9999999999642" x2="116.11652351685245" y2="883.8834764831478" />
 <line style="stroke:blue;stroke-width:2;stroke-opacity:1" x1="396.4466094067608" y1="1000.0000000000352" x2="323.2233047033644" y2="926.7766952966389" />
 <line style="stroke:blue;stroke-width:2;stroke-opacity:1" x1="396.446609406727" y1="499.9999999999982" x2="396.446609406727" y2="603.5533905933028" />
 <line style="stroke:blue;stroke-width:2;stroke-opacity:1" x1="176.77669529663672" y1="633.8834764831827" x2="219.6699141100961" y2="676.7766952966412" />
 <line style="stroke:blue;stroke-width:2;stroke-opacity:1" x1="308.05826175840195" y1="816.9417382415895" x2="292.8932188134451" y2="853.5533905932746" />
 <line style="stroke:blue;stroke-width:2;stroke-opacity:1" x1="719.6699141100956" y1="866.1165235168155" x2="676.7766952966385" y2="823.2233047033583" />
 <line style="stroke:black;stroke-width:4;" x1="0.0" y1="646.4466094067245" x2="0.0" y2="750.0" />
 <line style="stroke:blue;stroke-width:2;stroke-opacity:1" x1="426.7766952966369" y1="426.7766952966369" x2="500.00000000000074" y2="500.0000000000007" />
 <line style="stroke:red;stroke-width:2;" x1="146.44660940672537" y1="707.1067811865549" x2="219.66991411008036" y2="780.3300858899099" />
 <line style="stroke:red;stroke-width:2;" x1="853.5533905932739" y1="499.99999999999994" x2="750.0000000000001" y2="750.0" />
 <line style="stroke:blue;stroke-width:2;stroke-opacity:1" x1="500.0" y1="250.0000000000001" x2="625.0" y2="375.0" />
 <line style="stroke:blue;stroke-width:2;stroke-opacity:1" x1="271.4466094067286" y1="624.9999999999995" x2="323.22330470336465" y2="573.2233047033604" />
 <line style="stroke:black;stroke-width:4;" x1="224.87373415292046" y1="1000.0" x2="250.00000000000006" y2="1000.0" />
 <line style="stroke:blue;stroke-width:2;stroke-opacity:1" x1="146.44660940674265" y1="810.6601717798335" x2="116.11652351683432" y2="823.2233047033742" />
 <line style="stroke:red;stroke-width:2;" x1="573.2233047033678" y1="1000.0" x2="573.2233047033678" y2="926.7766952966385" />
 <line style="stroke:red;stroke-width:2;" x1="875.0" y1="125.0" x2="948.223304703363" y2="125.00000000000007" />
 <line style="stroke:black;stroke-width:4;" x1="573.2233047033678" y1="1000.0" x2="750.0000000000001" y2="1000.0" />
 <line style="stroke:red;stroke-width:2;" x1="1000.0" y1="250.00000000000006" x2="948.223304703363" y2="125.00000000000007" />
 <line style="stroke:red;stroke-width:2;" x1="30.330085889910663" y1="73.22330470336311" x2="0.0" y2="0.0" />
 <line style="stroke:red;stroke-width:2;" x1="116.11652351683455" y1="823.2233047033743" x2="0.0" y2="871.3203435596618" />
 <line style="stroke:red;stroke-width:2;" x1="625.0" y1="448.2233047033631" x2="499.99999999999994" y2="500.0" />
 <line style="stroke:red;stroke-width:2;" x1="500.0000000000018" y1="500.0000000000018" x2="500.0000000000019" y2="603.553390593273" />
 <line style="stroke:blue;stroke-width:2;stroke-opacity:1" x1="750.0000000000001" y1="750.0" x2="750.0" y2="500.0000000000001" />
 <line style="stroke:black;stroke-width:4;" x1="2.8421709430404007E-13" y1="1000.0" x2="94.66991411014021" y2="1000.0" />
 <line style="stroke:red;stroke-width:2;" x1="551.7766952966368" y1="375.0" x2="500.0" y2="250.0000000000001" />
 <line style="stroke:blue;stroke-width:2;stroke-opacity:1" x1="116.11652351683455" y1="823.2233047033743" x2="64.33982822024473" y2="874.9999999999642" />
 <line style="stroke:blue;stroke-width:2;stroke-opacity:1" x1="176.77669529663876" y1="323.22330470335874" x2="249.99999999999994" y2="250.0000000000001" />
 <line style="stroke:blue;stroke-width:2;stroke-opacity:1" x1="749.9999999999998" y1="-1.4210854715202004E-13" x2="875.0000000000003" y2="125.0" />
 <line style="stroke:blue;stroke-width:2;stroke-opacity:1" x1="73.22330470335822" y1="176.77669529664186" x2="250.00000000000006" y2="-7.105427357601002E-14" />
 <line style="stroke:red;stroke-width:2;" x1="250.00000000000006" y1="1000.0" x2="265.16504294495707" y2="963.3883476483184" />
 <line style="stroke:black;stroke-width:4;" x1="0.0" y1="871.3203435596618" x2="5.6843418860808015E-14" y2="853.5533905932675" />
 <line style="stroke:black;stroke-width:4;" x1="0.0" y1="426.77669529663234" x2="0.0" y2="250.00000000000003" />
 <line style="stroke:blue;stroke-width:2;stroke-opacity:1" x1="512.5631329235457" y1="780.3300858899098" x2="469.6699141100924" y2="823.223304703363" />
 <line style="stroke:red;stroke-width:2;" x1="146.4466094067106" y1="1000.0000000000091" x2="219.66991411008456" y2="969.6699141100939" />
 <line style="stroke:blue;stroke-width:2;stroke-opacity:1" x1="500.0" y1="7.105427357601002E-14" x2="750.0" y2="249.99999999999997" />
 <line style="stroke:red;stroke-width:2;" x1="823.2233047033644" y1="823.2233047033642" x2="719.6699141100883" y2="926.7766952966405" />
 <line style="stroke:blue;stroke-width:2;stroke-opacity:1" x1="262.56313292354207" y1="926.776695296639" x2="280.3300858899112" y2="944.543648263008" />
 <line style="stroke:red;stroke-width:2;" x1="292.8932188134538" y1="646.4466094067284" x2="323.2233047033635" y2="573.2233047033594" />
 <line style="stroke:red;stroke-width:2;" x1="30.33008588990606" y1="780.3300858899155" x2="39.213562373093964" y2="758.8834764831807" />
 <line style="stroke:blue;stroke-width:2;stroke-opacity:1" x1="323.2233047033653" y1="426.77669529663154" x2="500.00000000000017" y2="250.0" />
 <line style="stroke:red;stroke-width:2;" x1="396.44660940672827" y1="749.9999999999991" x2="469.66991411009235" y2="719.6699141100883" />
 <line style="stroke:blue;stroke-width:2;stroke-opacity:1" x1="771.4466094067238" y1="978.5533905932762" x2="719.6699141100883" y2="926.7766952966405" />
 <line style="stroke:blue;stroke-width:2;stroke-opacity:1" x1="469.6699141100924" y1="823.223304703363" x2="426.7766952966391" y2="866.1165235168164" />
 <line style="stroke:red;stroke-width:2;" x1="42.89321881345154" y1="749.9999999999959" x2="36.61165235168164" y2="734.8349570550431" />
 <line style="stroke:red;stroke-width:2;" x1="42.89321881345137" y1="749.999999999996" x2="73.22330470337067" y2="780.3300858899103" />
 <line style="stroke:blue;stroke-width:2;stroke-opacity:1" x1="469.66991411009235" y1="573.2233047033584" x2="500.00000000000074" y2="500.0000000000008" />
 <line style="stroke:blue;stroke-width:2;stroke-opacity:1" x1="1000.0" y1="499.99999999999994" x2="750.0" y2="250.00000000000003" />
 <line style="stroke:blue;stroke-width:2;stroke-opacity:1" x1="189.33982822016645" y1="853.5533905932573" x2="176.77669529662592" y2="883.8834764831653" />
 <line style="stroke:red;stroke-width:2;" x1="30.330085889911174" y1="719.6699141100887" x2="55.456351736991905" y2="719.6699141100887" />
 <line style="stroke:black;stroke-width:4;" x1="0.0" y1="73.22330470336311" x2="0.0" y2="146.44660940672622" />
 <line style="stroke:red;stroke-width:2;" x1="125.00000000003581" y1="905.3300858898722" x2="176.77669529662592" y2="883.8834764831653" />
 <line style="stroke:blue;stroke-width:2;stroke-opacity:1" x1="500.00000000000017" y1="250.0" x2="750.0" y2="250.0" />
 <line style="stroke:blue;stroke-width:2;stroke-opacity:1" x1="176.7766952966258" y1="969.6699141100939" x2="176.77669529662575" y2="883.8834764831653" />
 <line style="stroke:red;stroke-width:2;" x1="30.330085889911174" y1="719.6699141100887" x2="36.61165235168164" y2="734.834957055043" />
 <line style="stroke:red;stroke-width:2;" x1="448.2233047033628" y1="375.0000000000007" x2="323.2233047033653" y2="426.7766952966316" />
 <line style="stroke:red;stroke-width:2;" x1="73.22330470336158" y1="676.7766952966344" x2="60.660171779819905" y2="707.1067811865444" />
 <line style="stroke:blue;stroke-width:2;stroke-opacity:1" x1="875.0000000000002" y1="801.7766952966379" x2="823.2233047033644" y2="823.2233047033642" />
 <line style="stroke:blue;stroke-width:2;stroke-opacity:1" x1="73.22330470336175" y1="426.7766952966326" x2="176.77669529663672" y2="530.3300858899077" />
 <line style="stroke:blue;stroke-width:2;stroke-opacity:1" x1="801.7766952966368" y1="125.0" x2="875.0" y2="198.2233047033631" />
 <line style="stroke:blue;stroke-width:2;stroke-opacity:1" x1="0.0" y1="542.8932188134111" x2="21.44660940673674" y2="551.7766952965998" />
 <line style="stroke:blue;stroke-width:2;stroke-opacity:1" x1="21.446609406723724" y1="228.55339059327622" x2="73.22330470335828" y2="176.77669529664178" />
 <line style="stroke:blue;stroke-width:2;stroke-opacity:1" x1="0.0" y1="0.0" x2="73.22330470336311" y2="73.22330470336304" />
 <line style="stroke:red;stroke-width:2;" x1="448.2233047033628" y1="375.0000000000007" x2="499.99999999999994" y2="250.00000000000006" />
 <line style="stroke:blue;stroke-width:2;stroke-opacity:1" x1="42.89321881345154" y1="749.9999999999959" x2="51.77669529663518" y2="728.5533905932715" />
 <line style="stroke:blue;stroke-width:2;stroke-opacity:1" x1="500.0" y1="146.44660940672622" x2="500.0" y2="250.00000000000006" />
 <line style="stroke:red;stroke-width:2;" x1="749.9999999999999" y1="0.0" x2="875.0" y2="51.77669529663689" />
 <line style="stroke:red;stroke-width:2;" x1="1000.0" y1="250.00000000000006" x2="875.0" y2="198.2233047033631" />
 <line style="stroke:red;stroke-width:2;" x1="853.5533905932739" y1="499.99999999999994" x2="750.0" y2="250.00000000000003" />
 <line style="stroke:blue;stroke-width:2;stroke-opacity:1" x1="250.00000000000006" y1="1000.0" x2="250.0000000000041" y2="957.1067811865485" />
 <line style="stroke:red;stroke-width:2;" x1="771.4466094067238" y1="978.5533905932762" x2="780.3300858899072" y2="987.4368670764596" />
 <line style="stroke:blue;stroke-width:2;stroke-opacity:1" x1="469.6699141100909" y1="573.2233047033619" x2="426.7766952966365" y2="530.3300858899077" />
 <line style="stroke:blue;stroke-width:2;stroke-opacity:1" x1="323.223304703362" y1="499.9999999999982" x2="323.223304703362" y2="530.3300858899092" />
 <line style="stroke:red;stroke-width:2;" x1="241.11652351681926" y1="960.786437626906" x2="219.66991411008456" y2="969.6699141100939" />
 <line style="stroke:red;stroke-width:2;" x1="551.7766952966368" y1="375.0" x2="625.0" y2="375.0" />
 <line style="stroke:red;stroke-width:2;" x1="73.22330470336135" y1="426.7766952966316" x2="0.0" y2="250.0" />
 <line style="stroke:red;stroke-width:2;" x1="176.77669529663575" y1="176.77669529663575" x2="73.22330470335947" y2="280.33008588991197" />
 <line style="stroke:black;stroke-width:4;" x1="500.0" y1="0.0" x2="646.4466094067257" y2="0.0" />
 <line style="stroke:blue;stroke-width:2;stroke-opacity:1" x1="426.7766952966416" y1="530.3300858899077" x2="499.99999999999926" y2="499.9999999999993" />
 <line style="stroke:blue;stroke-width:2;stroke-opacity:1" x1="189.3398282201785" y1="1000.0" x2="219.66991411008456" y2="969.6699141100939" />
 <line style="stroke:red;stroke-width:2;" x1="353.55339059327514" y1="853.5533905932746" x2="426.7766952966391" y2="926.7766952966385" />
 <line style="stroke:blue;stroke-width:2;stroke-opacity:1" x1="323.223304703362" y1="323.22330470336397" x2="375.0" y2="301.77669529663694" />
 <line style="stroke:red;stroke-width:2;" x1="280.3300858899112" y1="944.543648263008" x2="280.33008588991123" y2="969.6699141100887" />
 <line style="stroke:blue;stroke-width:2;stroke-opacity:1" x1="250.00000000000412" y1="957.1067811865485" x2="271.4466094067286" y2="948.2233047033649" />
 <line style="stroke:red;stroke-width:2;" x1="21.446609406723724" y1="228.55339059327622" x2="12.563132923540365" y2="219.6699141100929" />
 <line style="stroke:blue;stroke-width:2;stroke-opacity:1" x1="30.330085889911174" y1="719.6699141100887" x2="0.0" y2="750.0" />
 <line style="stroke:blue;stroke-width:2;stroke-opacity:1" x1="116.11652351678623" y1="883.8834764831478" x2="176.77669529662552" y2="883.8834764831653" />
 <line style="stroke:blue;stroke-width:2;stroke-opacity:1" x1="426.7766952966365" y1="530.3300858899077" x2="396.446609406727" y2="499.9999999999982" />
 <line style="stroke:red;stroke-width:2;" x1="94.66991411014021" y1="1000.0" x2="94.66991411014055" y2="905.3300858898601" />
 <line style="stroke:red;stroke-width:2;" x1="146.44660940674265" y1="810.6601717798335" x2="219.66991411013697" y2="780.3300858899099" />
 <line style="stroke:red;stroke-width:2;" x1="73.22330470336146" y1="426.77669529663183" x2="21.44660940673674" y2="551.7766952965998" />
 <line style="stroke:red;stroke-width:2;" x1="201.90296114371625" y1="944.5436482630034" x2="176.77669529662558" y2="883.8834764831653" />
 <line style="stroke:blue;stroke-width:2;stroke-opacity:1" x1="676.7766952966385" y1="676.7766952966381" x2="573.2233047033671" y2="676.7766952966381" />
 <line style="stroke:blue;stroke-width:2;stroke-opacity:1" x1="73.22330470335896" y1="676.7766952966335" x2="-3.524291969370097E-11" y2="603.5533905932393" />
 <line style="stroke:red;stroke-width:2;" x1="219.66991411009008" y1="676.7766952966435" x2="219.66991411009008" y2="780.3300858899099" />
 <line style="stroke:red;stroke-width:2;" x1="1000.0000000000001" y1="646.4466094067257" x2="750.0000000000002" y2="750.0" />
 <line style="stroke:black;stroke-width:4;" x1="0.0" y1="853.5533905932675" x2="0.0" y2="810.6601717798217" />
 <line style="stroke:red;stroke-width:2;" x1="176.7766952966258" y1="969.6699141100939" x2="219.66991411008456" y2="969.6699141100939" />
 <line style="stroke:blue;stroke-width:2;stroke-opacity:1" x1="853.5533905932739" y1="499.99999999999994" x2="750.0" y2="500.0" />
 <line style="stroke:red;stroke-width:2;" x1="823.2233047033584" y1="926.7766952966417" x2="948.2233047033633" y2="874.9999999999999" />
 <line style="stroke:blue;stroke-width:2;stroke-opacity:1" x1="-9.15179043659009E-12" y1="853.5533905932894" x2="30.33008588990606" y2="823.2233047033742" />
 <line style="stroke:black;stroke-width:4;" x1="780.3300858899072" y1="1000.0" x2="750.0000000000001" y2="1000.0" />
 <line style="stroke:blue;stroke-width:2;stroke-opacity:1" x1="573.2233047033686" y1="926.7766952966385" x2="719.6699141100883" y2="926.7766952966405" />
 <line style="stroke:red;stroke-width:2;" x1="948.2233047033633" y1="874.9999999999999" x2="1000.0" y2="750.0000000000001" />
 <line style="stroke:red;stroke-width:2;" x1="0.0" y1="905.3300858898598" x2="94.66991411014027" y2="905.3300858898598" />
 <line style="stroke:red;stroke-width:2;" x1="676.7766952966385" y1="823.2233047033641" x2="823.2233047033644" y2="823.2233047033642" />
 <line style="stroke:blue;stroke-width:2;stroke-opacity:1" x1="323.223304703362" y1="499.9999999999982" x2="323.223304703362" y2="426.77669529663956" />
 <line style="stroke:red;stroke-width:2;" x1="176.77669529663672" y1="530.3300858899077" x2="280.33008588991186" y2="530.3300858899077" />
 <line style="stroke:red;stroke-width:2;" x1="750.0000000000001" y1="1000.0" x2="780.3300858899072" y2="987.4368670764596" />
 <line style="stroke:red;stroke-width:2;" x1="426.77669529663916" y1="866.1165235168164" x2="573.2233047033678" y2="926.7766952966385" />
 <line style="stroke:blue;stroke-width:2;stroke-opacity:1" x1="926.7766952966372" y1="926.776695296637" x2="948.2233047033633" y2="874.9999999999999" />
 <line style="stroke:blue;stroke-width:2;stroke-opacity:1" x1="0.0" y1="250.0" x2="21.446609406723724" y2="228.55339059327622" />
 <line style="stroke:blue;stroke-width:2;stroke-opacity:1" x1="323.22330470336635" y1="323.22330470335953" x2="219.66991411009013" y2="366.11652351681175" />
 <line style="stroke:red;stroke-width:2;" x1="926.7766952966372" y1="969.6699141100894" x2="1000.0000000000002" y2="1000.0" />
 <line style="stroke:blue;stroke-width:2;stroke-opacity:1" x1="219.66991411009013" y1="426.7766952966341" x2="323.2233047033637" y2="426.77669529663547" />
 <line style="stroke:red;stroke-width:2;" x1="116.1165235168346" y1="823.2233047033744" x2="94.66991411012782" y2="874.9999999999642" />
 <line style="stroke:blue;stroke-width:2;stroke-opacity:1" x1="125.00000000003581" y1="935.6601717797553" x2="94.66991411014016" y2="905.3300858898594" />
 <line style="stroke:blue;stroke-width:2;stroke-opacity:1" x1="219.66991411009008" y1="780.3300858899099" x2="308.05826175840195" y2="816.9417382415895" />
 <line style="stroke:red;stroke-width:2;" x1="366.11652351681727" y1="823.2233047033633" x2="396.4466094067283" y2="749.9999999999993" />
 <line style="stroke:blue;stroke-width:2;stroke-opacity:1" x1="750.0000000000002" y1="750.0" x2="676.7766952966385" y2="676.7766952966385" />
 <line style="stroke:blue;stroke-width:2;stroke-opacity:1" x1="116.11652351683512" y1="823.2233047033744" x2="73.22330470337056" y2="780.3300858899103" />
 <line style="stroke:red;stroke-width:2;" x1="411.6116523516823" y1="463.38834764831654" x2="499.9999999999955" y2="499.9999999999955" />
 <line style="stroke:red;stroke-width:2;" x1="176.77669529663672" y1="530.3300858899077" x2="176.77669529663672" y2="633.8834764831827" />
 <line style="stroke:black;stroke-width:4;" x1="1000.0" y1="499.9999999999999" x2="1000.0" y2="353.5533905932743" />
 <line style="stroke:red;stroke-width:2;" x1="125.00000000003581" y1="905.3300858898722" x2="94.6699141101405" y2="905.3300858898599" />
 <line style="stroke:black;stroke-width:4;" x1="1000.0" y1="646.4466094067258" x2="1000.0" y2="750.0000000000001" />
 <line style="stroke:red;stroke-width:2;" x1="176.77669529663575" y1="176.77669529663575" x2="176.77669529663575" y2="323.2233047033557" />
 <line style="stroke:blue;stroke-width:2;stroke-opacity:1" x1="73.22330470336294" y1="176.77669529663035" x2="73.22330470336311" y2="73.22330470336304" />
 <line style="stroke:red;stroke-width:2;" x1="176.77669529663672" y1="633.8834764831827" x2="161.61165235168096" y2="640.1650429449539" />
 <line style="stroke:blue;stroke-width:2;stroke-opacity:1" x1="280.33008588991186" y1="530.3300858899077" x2="323.223304703362" y2="573.2233047033578" />
 <line style="stroke:red;stroke-width:2;" x1="426.77669529663865" y1="530.3300858899077" x2="396.44660940671827" y2="603.5533905932817" />
 <line style="stroke:blue;stroke-width:2;stroke-opacity:1" x1="21.446609406723724" y1="228.55339059327622" x2="73.22330470335947" y2="280.33008588991197" />
 <line style="stroke:red;stroke-width:2;" x1="875.0" y1="51.77669529663689" x2="875.0" y2="125.0" />
 <line style="stroke:red;stroke-width:2;" x1="146.44660940672532" y1="646.446609406725" x2="73.22330470336294" y2="676.7766952966351" />
 <line style="stroke:red;stroke-width:2;" x1="161.61165235168096" y1="640.1650429449539" x2="146.44660940672532" y2="646.446609406725" />
 <line style="stroke:red;stroke-width:2;" x1="500.0" y1="0.0" x2="500.0" y2="146.44660940672622" />
 <line style="stroke:blue;stroke-width:2;stroke-opacity:1" x1="219.66991411009013" y1="366.11652351681175" x2="176.77669529663865" y2="323.22330470335874" />
 <line style="stroke:red;stroke-width:2;" x1="189.33982822016645" y1="853.5533905932573" x2="116.11652351685245" y2="883.8834764831478" />
 <line style="stroke:blue;stroke-width:2;stroke-opacity:1" x1="0.0" y1="646.4466094067245" x2="60.660171779819905" y2="707.1067811865444" />
 <line style="stroke:red;stroke-width:2;" x1="646.4466094067257" y1="0.0" x2="750.0" y2="250.0" />
 <line style="stroke:blue;stroke-width:2;stroke-opacity:1" x1="500.0000000000019" y1="676.7766952966381" x2="469.66991411009394" y2="676.7766952966381" />
 <line style="stroke:blue;stroke-width:2;stroke-opacity:1" x1="249.99999999999957" y1="249.99999999999997" x2="500.0000000000002" y2="249.99999999999997" />
 <line style="stroke:blue;stroke-width:2;stroke-opacity:1" x1="0.0" y1="73.22330470336311" x2="30.330085889910663" y2="73.22330470336311" />
 <line style="stroke:red;stroke-width:2;" x1="128.67965644033848" y1="1000.0" x2="176.77669529662575" y2="883.8834764831653" />
 <line style="stroke:blue;stroke-width:2;stroke-opacity:1" x1="73.2233047033614" y1="426.77669529663183" x2="73.2233047033614" y2="573.223304703361" />
 <line style="stroke:red;stroke-width:2;" x1="875.0000000000016" y1="801.7766952966373" x2="750.0" y2="749.9999999999998" />
 <line style="stroke:blue;stroke-width:2;stroke-opacity:1" x1="133.88347648318353" y1="573.223304703361" x2="176.77669529663672" y2="530.3300858899077" />
 <line style="stroke:red;stroke-width:2;" x1="249.99999999999994" y1="0.0" x2="125.0" y2="51.77669529663689" />
 <line style="stroke:blue;stroke-width:2;stroke-opacity:1" x1="280.3300858899112" y1="944.543648263008" x2="292.8932188134555" y2="939.3398282201802" />
 <line style="stroke:blue;stroke-width:2;stroke-opacity:1" x1="176.77669529663575" y1="176.77669529663575" x2="133.88347648318444" y2="280.33008588990435" />
 <line style="stroke:red;stroke-width:2;" x1="219.66991411008996" y1="926.7766952966294" x2="189.33982822016645" y2="853.5533905932573" />
 <line style="stroke:red;stroke-width:2;" x1="484.8349570550483" y1="713.388347648317" x2="469.66991411009235" y2="676.7766952966342" />
 <line style="stroke:red;stroke-width:2;" x1="875.0" y1="51.77669529663689" x2="1000.0" y2="0.0" />
 <line style="stroke:red;stroke-width:2;" x1="500.0000000000899" y1="1000.0" x2="448.2233047034003" y2="978.5533905932632" />
 <line style="stroke:blue;stroke-width:2;stroke-opacity:1" x1="426.77669529663683" y1="676.7766952966381" x2="469.66991411009394" y2="676.7766952966381" />
 <line style="stroke:blue;stroke-width:2;stroke-opacity:1" x1="125.00000000003581" y1="905.3300858898722" x2="116.11652351685223" y2="883.8834764831478" />
 <line style="stroke:red;stroke-width:2;" x1="500.0000000000002" y1="249.99999999999997" x2="375.0" y2="301.7766952966369" />
 <line style="stroke:blue;stroke-width:2;stroke-opacity:1" x1="36.611652351681414" y1="734.8349570550431" x2="51.77669529663518" y2="728.5533905932715" />
 <line style="stroke:red;stroke-width:2;" x1="73.22330470335822" y1="176.77669529664186" x2="125.0" y2="51.77669529663689" />
 <line style="stroke:black;stroke-width:4;" x1="146.4466094067327" y1="1000.0" x2="189.3398282201785" y2="1000.0" />
 <line style="stroke:blue;stroke-width:2;stroke-opacity:1" x1="55.45635173699651" y1="798.0970388562838" x2="39.213562373093964" y2="758.8834764831807" />
 <line style="stroke:blue;stroke-width:2;stroke-opacity:1" x1="292.89321881345325" y1="499.9999999999982" x2="323.223304703362" y2="499.9999999999982" />
 <line style="stroke:blue;stroke-width:2;stroke-opacity:1" x1="823.2233047033583" y1="926.7766952966417" x2="1000.0000000000002" y2="750.0" />
 <line style="stroke:red;stroke-width:2;" x1="396.4466094067394" y1="1000.0000000000138" x2="396.4466094067394" y2="957.1067811865385" />
 <line style="stroke:red;stroke-width:2;" x1="749.9999999999999" y1="0.0" x2="801.7766952966368" y2="125.0" />
 <line style="stroke:blue;stroke-width:2;stroke-opacity:1" x1="676.7766952966385" y1="823.2233047033583" x2="633.8834764831884" y2="780.3300858899098" />
 <line style="stroke:red;stroke-width:2;" x1="1000.0000000000002" y1="1000.0" x2="948.2233047033633" y2="874.9999999999999" />
 <line style="stroke:red;stroke-width:2;" x1="55.45635173699651" y1="798.0970388562838" x2="116.11652351683432" y2="823.2233047033742" />
 <line style="stroke:red;stroke-width:2;" x1="624.9999999999993" y1="551.7766952966371" x2="573.223304703367" y2="676.7766952966381" />
 <line style="stroke:red;stroke-width:2;" x1="353.5533905932716" y1="707.1067811865462" x2="323.22330470335464" y2="780.3300858899142" />
 <line style="stroke:blue;stroke-width:2;stroke-opacity:1" x1="573.2233047033662" y1="676.7766952966371" x2="750.0" y2="500.0" />
 <line style="stroke:blue;stroke-width:2;stroke-opacity:1" x1="1000.0" y1="249.99999999999997" x2="749.9999999999999" y2="250.00000000000003" />
 <line style="stroke:red;stroke-width:2;" x1="42.89321881345137" y1="749.9999999999959" x2="58.058261758408264" y2="743.7184335382261" />
 <line style="stroke:red;stroke-width:2;" x1="801.7766952966368" y1="125.0" x2="875.0" y2="125.0" />
 <line style="stroke:red;stroke-width:2;" x1="224.87373415292046" y1="1000.0" x2="241.1165235168192" y2="960.786437626906" />
 <line style="stroke:blue;stroke-width:2;stroke-opacity:1" x1="146.44660940672532" y1="646.446609406725" x2="146.44660940672532" y2="707.1067811865549" />
 <line style="stroke:red;stroke-width:2;" x1="750.0" y1="250.0" x2="875.0" y2="198.2233047033631" />
 <line style="stroke:blue;stroke-width:2;stroke-opacity:1" x1="125.00000000003581" y1="1000.0" x2="125.00000000003581" y2="935.660171779755" />
 <line style="stroke:blue;stroke-width:2;stroke-opacity:1" x1="536.6116523516835" y1="588.3883476483176" x2="500.0000000000019" y2="603.553390593273" />
 <line style="stroke:black;stroke-width:4;" x1="750.0" y1="0.0" x2="646.4466094067257" y2="0.0" />
 <line style="stroke:blue;stroke-width:2;stroke-opacity:1" x1="55.45635173699651" y1="798.0970388562838" x2="73.22330470337045" y2="780.3300858899098" />
 <line style="stroke:blue;stroke-width:2;stroke-opacity:1" x1="30.33008588990606" y1="573.2233047033858" x2="-2.2680524125462398E-11" y2="603.5533905932696" />
 <line style="stroke:black;stroke-width:4;" x1="853.5533905932739" y1="1000.0" x2="780.3300858899072" y2="1000.0" />
 <line style="stroke:blue;stroke-width:2;stroke-opacity:1" x1="219.66991411009013" y1="426.77669529663495" x2="219.66991411009013" y2="487.4368670764544" />
 <line style="stroke:red;stroke-width:2;" x1="0.0" y1="750.0" x2="36.611652351681414" y2="734.8349570550431" />
 <line style="stroke:red;stroke-width:2;" x1="396.4466094067393" y1="957.1067811865385" x2="426.7766952966992" y2="969.6699141100939" />
 <line style="stroke:red;stroke-width:2;" x1="500.0000000000019" y1="707.1067811865466" x2="573.2233047033652" y2="676.776695296636" />
 <line style="stroke:blue;stroke-width:2;stroke-opacity:1" x1="719.6699141100958" y1="866.1165235168154" x2="719.6699141100883" y2="926.7766952966405" />
 <line style="stroke:blue;stroke-width:2;stroke-opacity:1" x1="0.0" y1="219.6699141100929" x2="12.563132923540365" y2="219.6699141100929" />
 <line style="stroke:red;stroke-width:2;" x1="146.44660940672537" y1="707.1067811865549" x2="73.22330470336101" y2="737.4368670764579" />
 <line style="stroke:red;stroke-width:2;" x1="875.0000000000002" y1="801.7766952966377" x2="823.2233047033628" y2="926.7766952966372" />
 <line style="stroke:blue;stroke-width:2;stroke-opacity:1" x1="500.0" y1="250.00000000000006" x2="499.99999999999943" y2="499.99999999999943" />
 <line style="stroke:red;stroke-width:2;" x1="853.5533905932739" y1="1000.0" x2="926.7766952966372" y2="969.6699141100894" />
 <line style="stroke:red;stroke-width:2;" x1="750.0000000000001" y1="1000.0" x2="573.2233047033685" y2="926.7766952966385" />
 <line style="stroke:red;stroke-width:2;" x1="125.00000000003581" y1="905.3300858898722" x2="125.00000000003581" y2="935.6601717797553" />
 <line style="stroke:blue;stroke-width:2;stroke-opacity:1" x1="280.3300858899112" y1="944.543648263008" x2="271.4466094067286" y2="948.2233047033649" />
 <line style="stroke:blue;stroke-width:2;stroke-opacity:1" x1="146.44660940672537" y1="707.1067811865549" x2="73.22330470337045" y2="780.3300858899098" />
 <line style="stroke:red;stroke-width:2;" x1="133.88347648318444" y1="280.33008588990435" x2="73.22330470336135" y2="426.7766952966316" />
 <line style="stroke:blue;stroke-width:2;stroke-opacity:1" x1="60.660171779819905" y1="707.1067811865444" x2="55.456351736991905" y2="719.6699141100887" />
 <line style="stroke:blue;stroke-width:2;stroke-opacity:1" x1="116.11652351683432" y1="823.2233047033742" x2="30.33008588990606" y2="823.2233047033742" />
 <line style="stroke:red;stroke-width:2;" x1="183.05826175841042" y1="691.941738241598" x2="161.61165235168096" y2="640.1650429449539" />
 <line style="stroke:black;stroke-width:4;" x1="0.0" y1="810.6601717798217" x2="0.0" y2="775.1262658470796" />
 <line style="stroke:blue;stroke-width:2;stroke-opacity:1" x1="201.90296114371625" y1="944.5436482630034" x2="219.66991411009008" y2="926.7766952966297" />
 <line style="stroke:blue;stroke-width:2;stroke-opacity:1" x1="176.7766952966258" y1="969.6699141100939" x2="201.90296114371625" y2="944.5436482630034" />
 <line style="stroke:red;stroke-width:2;" x1="500.0000000000019" y1="500.0000000000018" x2="624.9999999999993" y2="551.7766952966371" />
 <line style="stroke:red;stroke-width:2;" x1="219.66991411009008" y1="426.7766952966332" x2="323.22330470335737" y2="323.2233047033659" />
 <line style="stroke:blue;stroke-width:2;stroke-opacity:1" x1="512.5631329235457" y1="780.3300858899099" x2="484.8349570550483" y2="713.388347648317" />
 <line style="stroke:blue;stroke-width:2;stroke-opacity:1" x1="176.77669529663575" y1="323.2233047033557" x2="133.88347648318438" y2="280.33008588990435" />
 <line style="stroke:blue;stroke-width:2;stroke-opacity:1" x1="573.223304703366" y1="780.3300858899098" x2="573.2233047033681" y2="926.7766952966385" />
 <line style="stroke:red;stroke-width:2;" x1="262.56313292354207" y1="926.776695296639" x2="219.66991411009013" y2="926.7766952966297" />
 <line style="stroke:blue;stroke-width:2;stroke-opacity:1" x1="469.6699141100924" y1="823.223304703363" x2="573.223304703368" y2="926.7766952966385" />
 <line style="stroke:red;stroke-width:2;" x1="1000.0" y1="500.0" x2="853.5533905932739" y2="499.99999999999994" />
 <line style="stroke:blue;stroke-width:2;stroke-opacity:1" x1="176.77669529662592" y1="883.8834764831653" x2="125.00000000003581" y2="935.6601717797553" />
 <line style="stroke:blue;stroke-width:2;stroke-opacity:1" x1="771.4466094067238" y1="978.5533905932762" x2="750.0000000000001" y2="1000.0" />
 <line style="stroke:red;stroke-width:2;" x1="323.223304703362" y1="499.9999999999982" x2="396.446609406727" y2="499.9999999999982" />
 <line style="stroke:black;stroke-width:4;" x1="128.67965644033848" y1="1000.0" x2="146.4466094067327" y2="1000.0" />
 <line style="stroke:red;stroke-width:2;" x1="250.0000000000008" y1="603.5533905932717" x2="271.4466094067286" y2="624.9999999999995" />
 <line style="stroke:red;stroke-width:2;" x1="323.22330470336414" y1="926.776695296639" x2="353.55339059327514" y2="853.5533905932746" />
 <line style="stroke:black;stroke-width:4;" x1="1000.0" y1="249.99999999999994" x2="1000.0" y2="353.5533905932743" />
 <line style="stroke:blue;stroke-width:2;stroke-opacity:1" x1="286.611652351683" y1="515.1650429449518" x2="219.66991411009013" y2="487.4368670764544" />
 <line style="stroke:red;stroke-width:2;" x1="426.7766952966367" y1="676.7766952966381" x2="500.0000000000019" y2="603.553390593273" />
 <line style="stroke:blue;stroke-width:2;stroke-opacity:1" x1="176.77669529663575" y1="176.77669529663575" x2="73.22330470336021" y2="176.77669529663703" />
 <line style="stroke:red;stroke-width:2;" x1="219.66991411008576" y1="676.7766952966454" x2="292.8932188134538" y2="646.4466094067284" />
 <line style="stroke:red;stroke-width:2;" x1="323.2233047033656" y1="926.7766952966384" x2="292.8932188134555" y2="939.3398282201802" />
 <line style="stroke:blue;stroke-width:2;stroke-opacity:1" x1="676.7766952966385" y1="823.2233047033639" x2="750.0000000000002" y2="750.0" />
 <line style="stroke:blue;stroke-width:2;stroke-opacity:1" x1="308.05826175840195" y1="816.9417382415895" x2="323.22330470335464" y2="780.3300858899142" />
 <line style="stroke:red;stroke-width:2;" x1="353.55339059327434" y1="0.0" x2="249.9999999999999" y2="250.00000000000014" />
 <line style="stroke:black;stroke-width:4;" x1="0.0" y1="73.22330470336311" x2="0.0" y2="0.0" />
 <line style="stroke:red;stroke-width:2;" x1="926.7766952966372" y1="969.6699141100894" x2="926.7766952966372" y2="926.7766952966371" />
 <line style="stroke:red;stroke-width:2;" x1="411.6116523516823" y1="463.38834764831654" x2="323.2233047033638" y2="426.7766952966352" />
 <line style="stroke:red;stroke-width:2;" x1="500.0000000000019" y1="707.1067811865466" x2="484.8349570550483" y2="713.388347648317" />
 <line style="stroke:black;stroke-width:4;" x1="1000.0" y1="646.4466094067258" x2="1000.0" y2="499.99999999999994" />
 <line style="stroke:red;stroke-width:2;" x1="219.66991411009008" y1="780.3300858899099" x2="323.22330470335896" y2="780.3300858899099" />
 <line style="stroke:blue;stroke-width:2;stroke-opacity:1" x1="426.7766952966369" y1="426.7766952966369" x2="323.22330470336374" y2="426.77669529663547" />
 <line style="stroke:red;stroke-width:2;" x1="536.6116523516835" y1="588.3883476483176" x2="573.2233047033632" y2="573.223304703363" />
 <line style="stroke:blue;stroke-width:2;stroke-opacity:1" x1="256.281566461774" y1="941.9417382415918" x2="219.66991411009008" y2="926.7766952966297" />
 <line style="stroke:blue;stroke-width:2;stroke-opacity:1" x1="219.66991411009013" y1="487.4368670764544" x2="176.77669529663683" y2="530.3300858899077" />
 <line style="stroke:red;stroke-width:2;" x1="500.0000000000019" y1="707.1067811865466" x2="573.223304703365" y2="780.3300858899098" />
 <line style="stroke:red;stroke-width:2;" x1="780.3300858899072" y1="987.4368670764596" x2="926.7766952966372" y2="926.776695296637" />
 <line style="stroke:red;stroke-width:2;" x1="292.89321881345325" y1="499.9999999999982" x2="286.611652351683" y2="515.1650429449518" />
 <line style="stroke:black;stroke-width:4;" x1="749.9999999999999" y1="0.0" x2="1000.0" y2="0.0" />
 <line style="stroke:red;stroke-width:2;" x1="1000.0" y1="0.0" x2="948.223304703363" y2="125.00000000000007" />
 <line style="stroke:blue;stroke-width:2;stroke-opacity:1" x1="426.77669529663956" y1="676.7766952966354" x2="469.66991411009235" y2="719.6699141100883" />
 <line style="stroke:red;stroke-width:2;" x1="625.0" y1="448.2233047033631" x2="750.0" y2="500.0" />
 <line style="stroke:red;stroke-width:2;" x1="219.66991411009013" y1="487.4368670764544" x2="73.22330470336146" y2="426.77669529663206" />
 <line style="stroke:red;stroke-width:2;" x1="189.33982822016645" y1="853.5533905932573" x2="219.66991411007075" y2="780.3300858899099" />
 <line style="stroke:red;stroke-width:2;" x1="353.55339059327514" y1="853.5533905932746" x2="359.8349570550462" y2="838.388347648319" />
 <line style="stroke:red;stroke-width:2;" x1="292.89321881345325" y1="499.9999999999982" x2="323.22330470336516" y2="426.7766952966318" />
 <line style="stroke:black;stroke-width:4;" x1="0.0" y1="426.77669529663234" x2="0.0" y2="499.9999999999102" />
 <line style="stroke:red;stroke-width:2;" x1="262.56313292354207" y1="926.776695296639" x2="292.8932188134451" y2="853.5533905932746" />
 <line style="stroke:blue;stroke-width:2;stroke-opacity:1" x1="573.2233047033632" y1="573.223304703363" x2="573.2233047033645" y2="676.7766952966355" />
 <line style="stroke:blue;stroke-width:2;stroke-opacity:1" x1="750.0" y1="250.0" x2="750.0000000000001" y2="500.0000000000001" />
 <line style="stroke:blue;stroke-width:2;stroke-opacity:1" x1="219.66991411009013" y1="926.7766952966297" x2="219.66991411009008" y2="780.3300858899099" />
 <line style="stroke:blue;stroke-width:2;stroke-opacity:1" x1="176.7766952966258" y1="969.6699141100939" x2="146.4466094067106" y2="1000.0000000000091" />
 <line style="stroke:blue;stroke-width:2;stroke-opacity:1" x1="353.55339059327514" y1="853.5533905932746" x2="292.8932188134451" y2="853.5533905932746" />
 <line style="stroke:red;stroke-width:2;" x1="323.2233047033712" y1="573.223304703367" x2="396.44660940671827" y2="603.5533905932817" />
 <line style="stroke:red;stroke-width:2;" x1="500.0" y1="146.44660940672622" x2="249.99999999999994" y2="250.00000000000003" />
 <line style="stroke:red;stroke-width:2;" x1="448.2233047034003" y1="978.5533905932632" x2="573.2233047033678" y2="926.7766952966385" />
 <line style="stroke:blue;stroke-width:2;stroke-opacity:1" x1="133.88347648318444" y1="280.33008588990435" x2="73.22330470335947" y2="280.33008588991197" />
 <line style="stroke:blue;stroke-width:2;stroke-opacity:1" x1="265.16504294495707" y1="963.3883476483184" x2="271.4466094067286" y2="948.2233047033649" />
 <line style="stroke:red;stroke-width:2;" x1="625.0" y1="448.2233047033631" x2="625.0" y2="375.0" />
 <line style="stroke:blue;stroke-width:2;stroke-opacity:1" x1="500.0000000000019" y1="676.7766952966381" x2="573.2233047033671" y2="676.7766952966381" />
 <line style="stroke:blue;stroke-width:2;stroke-opacity:1" x1="73.22330470337033" y1="780.3300858899099" x2="58.05826175840821" y2="743.7184335382261" />
 <line style="stroke:blue;stroke-width:2;stroke-opacity:1" x1="823.2233047033632" y1="926.776695296637" x2="926.7766952966372" y2="926.776695296637" />
 <line style="stroke:black;stroke-width:4;" x1="396.4466094067256" y1="1000.0" x2="457.1067811865891" y2="1000.0" />
 <line style="stroke:black;stroke-width:4;" x1="1000.0" y1="0.0" x2="1000.0" y2="250.0000000000001" />
 <line style="stroke:blue;stroke-width:2;stroke-opacity:1" x1="198.22330470336203" y1="125.0" x2="176.77669529663575" y2="176.77669529663575" />
 <line style="stroke:red;stroke-width:2;" x1="265.165042944957" y1="963.3883476483184" x2="280.33008588991123" y2="969.6699141100887" />
 <line style="stroke:blue;stroke-width:2;stroke-opacity:1" x1="457.1067811865891" y1="1000.0" x2="448.2233047034003" y2="978.5533905932632" />
 <line style="stroke:black;stroke-width:4;" x1="0.0" y1="250.0" x2="0.0" y2="219.6699141100929" />
 <line style="stroke:blue;stroke-width:2;stroke-opacity:1" x1="500.00000000000074" y1="500.0000000000008" x2="573.2233047033632" y2="573.223304703363" />
 <line style="stroke:red;stroke-width:2;" x1="0.0" y1="775.1262658470796" x2="39.213562373093964" y2="758.8834764831807" />
 <line style="stroke:red;stroke-width:2;" x1="64.33982822024473" y1="874.9999999999642" x2="94.66991411012782" y2="874.9999999999642" />
 <line style="stroke:blue;stroke-width:2;stroke-opacity:1" x1="573.2233047033632" y1="573.223304703363" x2="624.9999999999993" y2="551.7766952966371" />
 <line style="stroke:blue;stroke-width:2;stroke-opacity:1" x1="42.893218813451426" y1="749.9999999999959" x2="0.0" y2="750.0" />
 <line style="stroke:blue;stroke-width:2;stroke-opacity:1" x1="396.4466094067393" y1="957.1067811865385" x2="426.7766952966391" y2="926.7766952966385" />
 <line style="stroke:red;stroke-width:2;" x1="801.7766952966368" y1="125.0" x2="750.0" y2="250.0" />
 <line style="stroke:blue;stroke-width:2;stroke-opacity:1" x1="55.456351736991905" y1="719.6699141100887" x2="73.22330470336101" y2="737.4368670764579" />
 <line style="stroke:red;stroke-width:2;" x1="73.2233047033614" y1="426.7766952966326" x2="133.88347648318353" y2="573.2233047033609" />
 <line style="stroke:red;stroke-width:2;" x1="219.66991411009013" y1="366.11652351681164" x2="73.22330470336158" y2="426.77669529663206" />
 <line style="stroke:red;stroke-width:2;" x1="73.22330470336101" y1="737.4368670764579" x2="73.22330470337033" y2="780.3300858899095" />
 <line style="stroke:red;stroke-width:2;" x1="146.44660940674265" y1="810.6601717798335" x2="116.11652351685217" y2="883.8834764831478" />
 <line style="stroke:blue;stroke-width:2;stroke-opacity:1" x1="353.5533905932755" y1="1000.0" x2="292.8932188134555" y2="939.3398282201802" />
 <line style="stroke:blue;stroke-width:2;stroke-opacity:1" x1="250.00000000000014" y1="250.00000000000017" x2="323.2233047033634" y2="323.2233047033634" />
 <line style="stroke:blue;stroke-width:2;stroke-opacity:1" x1="875.0000000000002" y1="125.0" x2="1000.0" y2="250.00000000000006" />
 <line style="stroke:blue;stroke-width:2;stroke-opacity:1" x1="133.88347648318353" y1="573.223304703361" x2="73.2233047033614" y2="573.223304703361" />
 <line style="stroke:red;stroke-width:2;" x1="12.563132923540365" y1="219.6699141100929" x2="73.22330470336311" y2="73.22330470336304" />
 <line style="stroke:blue;stroke-width:2;stroke-opacity:1" x1="73.2233047033614" y1="573.223304703361" x2="73.22330470336146" y2="676.7766952966344" />
 <line style="stroke:blue;stroke-width:2;stroke-opacity:1" x1="353.5533905932716" y1="707.1067811865462" x2="375.00000000000045" y2="728.5533905932714" />
 <line style="stroke:red;stroke-width:2;" x1="426.7766952966369" y1="426.7766952966369" x2="411.6116523516823" y2="463.38834764831654" />
 <line style="stroke:red;stroke-width:2;" x1="551.7766952966368" y1="375.0" x2="500.0" y2="500.0" />
 <line style="stroke:blue;stroke-width:2;stroke-opacity:1" x1="573.223304703366" y1="780.3300858899098" x2="573.2233047033646" y2="676.7766952966355" />
 <line style="stroke:red;stroke-width:2;" x1="0.0" y1="146.44660940672622" x2="30.330085889910663" y2="73.22330470336311" />
 <line style="stroke:blue;stroke-width:2;stroke-opacity:1" x1="323.223304703362" y1="426.77669529663956" x2="323.223304703362" y2="323.22330470336397" />
 <line style="stroke:blue;stroke-width:2;stroke-opacity:1" x1="500.0" y1="0.0" x2="249.99999999999977" y2="250.00000000000014" />
 <line style="stroke:red;stroke-width:2;" x1="73.2233047033614" y1="573.223304703361" x2="30.33008588990606" y2="573.223304703361" />
 <line style="stroke:blue;stroke-width:2;stroke-opacity:1" x1="249.99999999999997" y1="-1.4210854715202004E-13" x2="250.0" y2="250.0000000000001" />
 <line style="stroke:blue;stroke-width:2;stroke-opacity:1" x1="1000.0" y1="500.0" x2="750.0000000000001" y2="750.0" />
 <line style="stroke:blue;stroke-width:2;stroke-opacity:1" x1="55.456351736991905" y1="719.6699141100887" x2="51.77669529663518" y2="728.5533905932715" />
 <line style="stroke:blue;stroke-width:2;stroke-opacity:1" x1="573.223304703365" y1="780.3300858899098" x2="633.8834764831884" y2="780.3300858899098" />
 <line style="stroke:black;stroke-width:4;" x1="0.0" y1="874.9999999999642" x2="0.0" y2="905.3300858898598" />
 <line style="stroke:red;stroke-width:2;" x1="625.0" y1="301.77669529663694" x2="500.0" y2="250.00000000000003" />
 <line style="stroke:red;stroke-width:2;" x1="42.8932188134616" y1="603.5533905932607" x2="-2.637534635141492E-11" y2="603.5533905932607" />
 <line style="stroke:red;stroke-width:2;" x1="698.2233047033632" y1="625.0" x2="749.9999999999999" y2="749.9999999999998" />
 <line style="stroke:red;stroke-width:2;" x1="500.0" y1="146.44660940672622" x2="750.0" y2="250.0" />
 <line style="stroke:red;stroke-width:2;" x1="512.5631329235457" y1="780.3300858899098" x2="573.2233047033681" y2="926.7766952966385" />
 <line style="stroke:blue;stroke-width:2;stroke-opacity:1" x1="219.66991411009013" y1="426.7766952966341" x2="73.22330470336158" y2="426.7766952966321" />
 <line style="stroke:blue;stroke-width:2;stroke-opacity:1" x1="0.0" y1="146.44660940672622" x2="73.22330470336317" y2="73.22330470336311" />
 <line style="stroke:red;stroke-width:2;" x1="469.6699141100924" y1="823.223304703363" x2="469.66991411009235" y2="719.6699141100883" />
 <line style="stroke:red;stroke-width:2;" x1="698.2233047033632" y1="624.9999999999999" x2="573.2233047033651" y2="676.776695296636" />
 <line style="stroke:red;stroke-width:2;" x1="125.0" y1="51.77669529663689" x2="0.0" y2="0.0" />
 <line style="stroke:black;stroke-width:4;" x1="249.9999999999999" y1="0.0" x2="0.0" y2="0.0" />
 <line style="stroke:blue;stroke-width:2;stroke-opacity:1" x1="250.00000000000006" y1="1000.0" x2="280.33008588991123" y2="969.6699141100887" />
 <line style="stroke:red;stroke-width:2;" x1="30.330085889910663" y1="73.22330470336311" x2="73.22330470336317" y2="73.22330470336311" />
 <line style="stroke:red;stroke-width:2;" x1="1000.0" y1="353.55339059327434" x2="750.0" y2="250.00000000000003" />
 <line style="stroke:blue;stroke-width:2;stroke-opacity:1" x1="411.6116523516823" y1="463.38834764831654" x2="396.446609406727" y2="499.9999999999982" />
 <line style="stroke:red;stroke-width:2;" x1="42.893218813451654" y1="749.9999999999957" x2="39.213562373093964" y2="758.8834764831807" />
 <line style="stroke:blue;stroke-width:2;stroke-opacity:1" x1="183.05826175841042" y1="691.941738241598" x2="146.44660940672537" y2="707.1067811865549" />
 <line style="stroke:black;stroke-width:4;" x1="499.99999999999994" y1="0.0" x2="353.55339059327434" y2="0.0" />
 <line style="stroke:blue;stroke-width:2;stroke-opacity:1" x1="500.0000000000019" y1="603.553390593273" x2="469.66991411009235" y2="676.7766952966342" />
 <line style="stroke:black;stroke-width:4;" x1="0.0" y1="499.9999999999102" x2="0.0" y2="542.8932188134111" />
 <line style="stroke:blue;stroke-width:2;stroke-opacity:1" x1="323.22330470335464" y1="780.3300858899142" x2="375.00000000000045" y2="728.5533905932714" />
 <line style="stroke:blue;stroke-width:2;stroke-opacity:1" x1="625.0" y1="448.2233047033631" x2="551.7766952966368" y2="375.0" />
 <line style="stroke:red;stroke-width:2;" x1="676.7766952966385" y1="676.7766952966382" x2="573.2233047033669" y2="780.3300858899098" />
 <line style="stroke:blue;stroke-width:2;stroke-opacity:1" x1="359.8349570550462" y1="838.388347648319" x2="426.7766952966391" y2="866.1165235168164" />
 <line style="stroke:red;stroke-width:2;" x1="198.22330470336203" y1="125.0" x2="250.00000000000003" y2="0.0" />
 <line style="stroke:red;stroke-width:2;" x1="375.00000000000045" y1="728.5533905932714" x2="396.44660940672827" y2="749.9999999999991" />
 <line style="stroke:red;stroke-width:2;" x1="30.33008588990606" y1="823.2233047033742" x2="30.33008588990606" y2="780.3300858899155" />
 <line style="stroke:red;stroke-width:2;" x1="426.77669529669913" y1="969.669914110094" x2="448.2233047034003" y2="978.5533905932632" />
 <line style="stroke:black;stroke-width:4;" x1="224.87373415292046" y1="1000.0" x2="189.3398282201785" y2="1000.0" />
 <line style="stroke:blue;stroke-width:2;stroke-opacity:1" x1="1000.0000000000001" y1="750.0" x2="750.0" y2="750.0" />
 <line style="stroke:blue;stroke-width:2;stroke-opacity:1" x1="750.0" y1="2.8421709430404007E-13" x2="750.0" y2="250.0" />
 <line style="stroke:blue;stroke-width:2;stroke-opacity:1" x1="323.223304703362" y1="573.2233047033578" x2="323.223304703362" y2="530.3300858899092" />
 <line style="stroke:red;stroke-width:2;" x1="292.89321881345325" y1="499.9999999999982" x2="219.66991411009008" y2="426.77669529663495" />
 <line style="stroke:blue;stroke-width:2;stroke-opacity:1" x1="250.0000000000008" y1="603.5533905932717" x2="176.77669529663672" y2="530.3300858899077" />
 <line style="stroke:red;stroke-width:2;" x1="73.22330470336101" y1="737.4368670764579" x2="58.058261758408264" y2="743.7184335382261" />
 <line style="stroke:blue;stroke-width:2;stroke-opacity:1" x1="698.2233047033632" y1="625.0" x2="676.7766952966385" y2="676.776695296632" />
 <line style="stroke:red;stroke-width:2;" x1="249.99999999999994" y1="250.0000000000001" x2="375.0" y2="301.77669529663694" />
 <line style="stroke:blue;stroke-width:2;stroke-opacity:1" x1="219.66991411008985" y1="926.7766952966294" x2="176.77669529662592" y2="883.8834764831653" />
 <line style="stroke:red;stroke-width:2;" x1="500.0000000000019" y1="676.7766952966381" x2="500.0000000000019" y2="603.553390593273" />
 <line style="stroke:blue;stroke-width:2;stroke-opacity:1" x1="219.66991411010343" y1="676.7766952966381" x2="323.22330470336715" y2="676.7766952966381" />
 <line style="stroke:black;stroke-width:4;" x1="0.0" y1="146.44660940672622" x2="0.0" y2="219.6699141100929" />
 <line style="stroke:blue;stroke-width:2;stroke-opacity:1" x1="42.8932188134616" y1="603.5533905932608" x2="73.2233047033614" y2="573.223304703361" />
 <line style="stroke:black;stroke-width:4;" x1="250.00000000000006" y1="1000.0" x2="353.5533905932755" y2="1000.0" />
 <line style="stroke:red;stroke-width:2;" x1="719.6699141100958" y1="866.1165235168154" x2="573.2233047033685" y2="926.7766952966385" />
 <line style="stroke:red;stroke-width:2;" x1="698.223304703363" y1="375.0" x2="750.0" y2="250.00000000000003" />
 <line style="stroke:blue;stroke-width:2;stroke-opacity:1" x1="1000.0000000000002" y1="1000.0" x2="926.7766952966372" y2="926.776695296637" />
 <line style="stroke:red;stroke-width:2;" x1="396.446609406727" y1="499.9999999999982" x2="323.22330470336465" y2="573.2233047033604" />
 <line style="stroke:blue;stroke-width:2;stroke-opacity:1" x1="396.4466094067147" y1="603.553390593273" x2="500.0000000000019" y2="603.553390593273" />
 <line style="stroke:red;stroke-width:2;" x1="250.0000000000042" y1="957.1067811865485" x2="265.165042944957" y2="963.3883476483184" />
 <line style="stroke:blue;stroke-width:2;stroke-opacity:1" x1="201.90296114371625" y1="944.5436482630034" x2="241.11652351681926" y2="960.786437626906" />
 <line style="stroke:black;stroke-width:4;" x1="0.0" y1="542.8932188134111" x2="0.0" y2="603.5533905933244" />
 <line style="stroke:blue;stroke-width:2;stroke-opacity:1" x1="176.77669529663865" y1="323.22330470335874" x2="73.22330470336158" y2="426.77669529663206" />
 <line style="stroke:blue;stroke-width:2;stroke-opacity:1" x1="323.2233047033658" y1="530.3300858899077" x2="396.446609406727" y2="499.9999999999982" />
 <line style="stroke:blue;stroke-width:2;stroke-opacity:1" x1="292.8932188134538" y1="646.4466094067284" x2="271.4466094067286" y2="624.9999999999995" />
 <line style="stroke:blue;stroke-width:2;stroke-opacity:1" x1="676.7766952966385" y1="823.2233047033641" x2="573.223304703368" y2="926.7766952966385" />
 <line style="stroke:red;stroke-width:2;" x1="250.00000000000085" y1="603.5533905932717" x2="176.77669529663672" y2="633.8834764831827" />
 <line style="stroke:red;stroke-width:2;" x1="396.4466094067394" y1="957.1067811865385" x2="323.2233047033644" y2="926.7766952966389" />
 <line style="stroke:blue;stroke-width:2;stroke-opacity:1" x1="500.00000000000057" y1="500.00000000000057" x2="750.0" y2="500.0" />
 <line style="stroke:red;stroke-width:2;" x1="323.2233047033653" y1="426.7766952966316" x2="375.0" y2="301.77669529663694" />
 <line style="stroke:red;stroke-width:2;" x1="198.22330470336294" y1="124.99999999999964" x2="250.00000000000006" y2="250.00000000000017" />
 <line style="stroke:red;stroke-width:2;" x1="198.22330470336203" y1="125.0" x2="73.22330470335964" y2="176.77669529663854" />
 <line style="stroke:red;stroke-width:2;" x1="676.7766952966385" y1="823.2233047033583" x2="676.7766952966385" y2="676.7766952966324" />
 <line style="stroke:red;stroke-width:2;" x1="624.9999999999993" y1="551.7766952966371" x2="750.0" y2="500.0" />
 <line style="stroke:red;stroke-width:2;" x1="146.44660940674265" y1="810.6601717798335" x2="73.2233047033705" y2="780.3300858899102" />
 <line style="stroke:red;stroke-width:2;" x1="42.8932188134616" y1="603.5533905932608" x2="73.22330470336044" y2="676.776695296634" />
 <line style="stroke:red;stroke-width:2;" x1="73.22330470336146" y1="676.7766952966344" x2="0.0" y2="646.4466094067245" />
 <line style="stroke:blue;stroke-width:2;stroke-opacity:1" x1="426.7766952966395" y1="676.7766952966354" x2="323.223304703362" y2="573.2233047033578" />
 <line style="stroke:red;stroke-width:2;" x1="469.66991411009235" y1="719.6699141100883" x2="484.8349570550483" y2="713.388347648317" />
 <line style="stroke:blue;stroke-width:2;stroke-opacity:1" x1="30.33008588990606" y1="823.2233047033742" x2="55.45635173699651" y2="798.0970388562838" />
 <line style="stroke:red;stroke-width:2;" x1="219.66991411008047" y1="780.3300858899099" x2="292.8932188134451" y2="853.5533905932746" />
 <line style="stroke:blue;stroke-width:2;stroke-opacity:1" x1="366.11652351681727" y1="823.2233047033633" x2="323.223304703362" y2="780.330085889907" />
 <line style="stroke:black;stroke-width:4;" x1="926.7766952966372" y1="1000.0" x2="1000.0000000000005" y2="1000.0" />
 <line style="stroke:red;stroke-width:2;" x1="0.0" y1="499.9999999999102" x2="21.44660940673674" y2="551.7766952965998" />
 <line style="stroke:blue;stroke-width:2;stroke-opacity:1" x1="500.0000000000019" y1="603.553390593273" x2="469.6699141100909" y2="573.2233047033619" />
 <line style="stroke:red;stroke-width:2;" x1="256.2815664617739" y1="941.9417382415918" x2="271.4466094067286" y2="948.2233047033649" />
 <line style="stroke:black;stroke-width:4;" x1="0.0" y1="775.1262658470796" x2="0.0" y2="750.0" />
 <line style="stroke:red;stroke-width:2;" x1="396.44660940671827" y1="603.5533905932817" x2="469.6699141100909" y2="573.2233047033619" />
 <line style="stroke:blue;stroke-width:2;stroke-opacity:1" x1="375.00000000000045" y1="728.5533905932714" x2="426.7766952966395" y2="676.7766952966354" />
 <line style="stroke:red;stroke-width:2;" x1="280.33008588991123" y1="969.6699141100887" x2="353.5533905932755" y2="1000.0" />
 <line style="stroke:blue;stroke-width:2;stroke-opacity:1" x1="323.223304703362" y1="573.2233047033578" x2="323.22330470336203" y2="676.7766952966329" />
 <line style="stroke:blue;stroke-width:2;stroke-opacity:1" x1="875.0" y1="51.77669529663689" x2="948.223304703363" y2="125.00000000000007" />
 <line style="stroke:blue;stroke-width:2;stroke-opacity:1" x1="853.5533905932739" y1="1000.0" x2="926.7766952966373" y2="926.7766952966366" />
 <line style="stroke:blue;stroke-width:2;stroke-opacity:1" x1="926.7766952966372" y1="1000.0" x2="926.7766952966372" y2="969.6699141100894" />
</svg>